<mxfile host="65bd71144e">
    <diagram id="MS1zJO0oj6zKp91xwt49" name="Page-1">
        <mxGraphModel dx="799" dy="467" grid="1" gridSize="10" guides="1" tooltips="1" connect="1" arrows="1" fold="1" page="1" pageScale="1" pageWidth="850" pageHeight="1100" math="0" shadow="0">
            <root>
                <mxCell id="0"/>
                <mxCell id="1" parent="0"/>
                <mxCell id="3" value="" style="html=1;points=[];perimeter=orthogonalPerimeter;" parent="1" vertex="1">
                    <mxGeometry x="100" y="210" width="10" height="80" as="geometry"/>
                </mxCell>
                <mxCell id="4" value="" style="shape=umlLifeline;participant=umlActor;perimeter=lifelinePerimeter;whiteSpace=wrap;html=1;container=1;collapsible=0;recursiveResize=0;verticalAlign=top;spacingTop=36;outlineConnect=0;" parent="1" vertex="1">
                    <mxGeometry x="90" y="80" width="30" height="570" as="geometry"/>
                </mxCell>
                <mxCell id="5" value=":admin" style="text;align=center;fontStyle=1;verticalAlign=middle;spacingLeft=3;spacingRight=3;strokeColor=none;rotatable=0;points=[[0,0.5],[1,0.5]];portConstraint=eastwest;" parent="4" vertex="1">
                    <mxGeometry x="-25" y="42" width="80" height="26" as="geometry"/>
                </mxCell>
                <mxCell id="52" value="" style="html=1;points=[];perimeter=orthogonalPerimeter;" vertex="1" parent="4">
                    <mxGeometry x="10" y="240" width="10" height="120" as="geometry"/>
                </mxCell>
                <mxCell id="53" value="" style="html=1;points=[];perimeter=orthogonalPerimeter;" vertex="1" parent="4">
                    <mxGeometry x="10" y="490" width="10" height="40" as="geometry"/>
                </mxCell>
                <mxCell id="15" value=":authorization&lt;div&gt;terminal&lt;/div&gt;" style="shape=umlLifeline;perimeter=lifelinePerimeter;whiteSpace=wrap;html=1;container=1;collapsible=0;recursiveResize=0;outlineConnect=0;rounded=1;shadow=0;comic=0;labelBackgroundColor=none;strokeWidth=1;fontFamily=Verdana;fontSize=12;align=center;" parent="1" vertex="1">
                    <mxGeometry x="210" y="80" width="100" height="580" as="geometry"/>
                </mxCell>
                <mxCell id="16" value="" style="html=1;points=[];perimeter=orthogonalPerimeter;rounded=0;shadow=0;comic=0;labelBackgroundColor=none;strokeWidth=1;fontFamily=Verdana;fontSize=12;align=center;" parent="15" vertex="1">
                    <mxGeometry x="45" y="130" width="10" height="80" as="geometry"/>
                </mxCell>
                <mxCell id="17" value="confirmation of departure/arrival" style="html=1;verticalAlign=bottom;endArrow=open;dashed=1;endSize=8;labelBackgroundColor=none;fontFamily=Verdana;fontSize=12;edgeStyle=elbowEdgeStyle;elbow=vertical;" parent="15" target="3" edge="1">
                    <mxGeometry x="0.0007" relative="1" as="geometry">
                        <mxPoint x="-80" y="210" as="targetPoint"/>
                        <Array as="points">
                            <mxPoint x="-10" y="210"/>
                            <mxPoint x="20" y="210"/>
                        </Array>
                        <mxPoint x="45" y="210" as="sourcePoint"/>
                        <mxPoint as="offset"/>
                    </mxGeometry>
                </mxCell>
                <mxCell id="26" value="data transmitssion" style="html=1;verticalAlign=bottom;endArrow=block;labelBackgroundColor=none;fontFamily=Verdana;fontSize=12;edgeStyle=elbowEdgeStyle;elbow=vertical;" parent="15" target="19" edge="1">
                    <mxGeometry x="-0.0043" relative="1" as="geometry">
                        <mxPoint x="50" y="140" as="sourcePoint"/>
                        <mxPoint x="170" y="130" as="targetPoint"/>
                        <mxPoint as="offset"/>
                    </mxGeometry>
                </mxCell>
                <mxCell id="18" value="input name&amp;nbsp; &amp;amp; password" style="html=1;verticalAlign=bottom;endArrow=block;labelBackgroundColor=none;fontFamily=Verdana;fontSize=12;edgeStyle=elbowEdgeStyle;elbow=vertical;exitX=0.967;exitY=0.021;exitDx=0;exitDy=0;exitPerimeter=0;" parent="1" edge="1">
                    <mxGeometry relative="1" as="geometry">
                        <mxPoint x="109.99999999999996" y="210" as="sourcePoint"/>
                        <mxPoint x="260" y="211" as="targetPoint"/>
                    </mxGeometry>
                </mxCell>
                <mxCell id="19" value=":staff manager" style="shape=umlLifeline;perimeter=lifelinePerimeter;whiteSpace=wrap;html=1;container=1;collapsible=0;recursiveResize=0;outlineConnect=0;rounded=1;shadow=0;comic=0;labelBackgroundColor=none;strokeWidth=1;fontFamily=Verdana;fontSize=12;align=center;" parent="1" vertex="1">
                    <mxGeometry x="375" y="80" width="100" height="580" as="geometry"/>
                </mxCell>
                <mxCell id="20" value="" style="html=1;points=[];perimeter=orthogonalPerimeter;rounded=0;shadow=0;comic=0;labelBackgroundColor=none;strokeWidth=1;fontFamily=Verdana;fontSize=12;align=center;" parent="19" vertex="1">
                    <mxGeometry x="45" y="140" width="10" height="50" as="geometry"/>
                </mxCell>
                <mxCell id="21" value="" style="html=1;verticalAlign=bottom;endArrow=block;labelBackgroundColor=none;fontFamily=Verdana;fontSize=12;edgeStyle=elbowEdgeStyle;elbow=horizontal;entryX=0.8;entryY=0.279;entryDx=0;entryDy=0;entryPerimeter=0;exitX=1.067;exitY=0.029;exitDx=0;exitDy=0;exitPerimeter=0;" parent="19" source="20" target="20" edge="1">
                    <mxGeometry relative="1" as="geometry">
                        <mxPoint x="75" y="110" as="sourcePoint"/>
                        <Array as="points">
                            <mxPoint x="130" y="140"/>
                            <mxPoint x="120" y="170"/>
                        </Array>
                        <mxPoint x="70" y="190" as="targetPoint"/>
                        <mxPoint as="offset"/>
                    </mxGeometry>
                </mxCell>
                <mxCell id="22" value="checking data&amp;nbsp;&lt;div&gt;(name&amp;amp;password)&amp;nbsp;&lt;/div&gt;" style="edgeLabel;html=1;align=center;verticalAlign=middle;resizable=0;points=[];" parent="21" vertex="1" connectable="0">
                    <mxGeometry x="-0.1788" y="2" relative="1" as="geometry">
                        <mxPoint x="-16" y="40" as="offset"/>
                    </mxGeometry>
                </mxCell>
                <mxCell id="28" value=":admin cabinet" style="shape=umlLifeline;perimeter=lifelinePerimeter;whiteSpace=wrap;html=1;container=1;collapsible=0;recursiveResize=0;outlineConnect=0;rounded=1;shadow=0;comic=0;labelBackgroundColor=none;strokeWidth=1;fontFamily=Verdana;fontSize=12;align=center;" parent="1" vertex="1">
                    <mxGeometry x="540" y="80" width="100" height="580" as="geometry"/>
                </mxCell>
                <mxCell id="29" value="" style="html=1;points=[[0,0,0,0,5],[0,1,0,0,-5],[1,0,0,0,5],[1,1,0,0,-5]];perimeter=orthogonalPerimeter;outlineConnect=0;targetShapes=umlLifeline;portConstraint=eastwest;newEdgeStyle={&quot;curved&quot;:0,&quot;rounded&quot;:0};" parent="28" vertex="1">
                    <mxGeometry x="45" y="240" width="10" height="120" as="geometry"/>
                </mxCell>
                <mxCell id="37" value="display data or showing report" style="html=1;verticalAlign=bottom;endArrow=open;dashed=1;endSize=8;entryX=0.907;entryY=0.997;entryDx=0;entryDy=0;entryPerimeter=0;" parent="28" target="52" edge="1">
                    <mxGeometry relative="1" as="geometry">
                        <mxPoint x="45" y="360" as="sourcePoint"/>
                        <mxPoint x="-410" y="360" as="targetPoint"/>
                    </mxGeometry>
                </mxCell>
                <mxCell id="39" value="&quot;move product&quot; command replay" style="html=1;verticalAlign=bottom;endArrow=open;dashed=1;endSize=8;" parent="28" target="4" edge="1">
                    <mxGeometry relative="1" as="geometry">
                        <mxPoint x="235" y="530" as="sourcePoint"/>
                        <mxPoint x="-410" y="530" as="targetPoint"/>
                    </mxGeometry>
                </mxCell>
                <mxCell id="35" value="" style="html=1;verticalAlign=bottom;endArrow=block;labelBackgroundColor=none;fontFamily=Verdana;fontSize=12;edgeStyle=elbowEdgeStyle;elbow=horizontal;entryX=0.8;entryY=0.279;entryDx=0;entryDy=0;entryPerimeter=0;exitX=1.067;exitY=0.029;exitDx=0;exitDy=0;exitPerimeter=0;" parent="28" edge="1">
                    <mxGeometry relative="1" as="geometry">
                        <mxPoint x="57.67000000000007" y="319.99999999999994" as="sourcePoint"/>
                        <Array as="points">
                            <mxPoint x="132" y="337.68"/>
                            <mxPoint x="122" y="367.68"/>
                        </Array>
                        <mxPoint x="55" y="339.99999999999994" as="targetPoint"/>
                        <mxPoint as="offset"/>
                    </mxGeometry>
                </mxCell>
                <mxCell id="36" value="data visualization&amp;nbsp;&lt;br&gt;or report creating" style="edgeLabel;html=1;align=center;verticalAlign=middle;resizable=0;points=[];" parent="35" vertex="1" connectable="0">
                    <mxGeometry x="-0.1788" y="2" relative="1" as="geometry">
                        <mxPoint x="-15" y="32" as="offset"/>
                    </mxGeometry>
                </mxCell>
                <mxCell id="31" value=":storage manager" style="shape=umlLifeline;perimeter=lifelinePerimeter;whiteSpace=wrap;html=1;container=1;collapsible=0;recursiveResize=0;outlineConnect=0;rounded=1;shadow=0;comic=0;labelBackgroundColor=none;strokeWidth=1;fontFamily=Verdana;fontSize=12;align=center;" parent="1" vertex="1">
                    <mxGeometry x="730" y="80" width="100" height="580" as="geometry"/>
                </mxCell>
                <mxCell id="32" value="" style="html=1;points=[[0,0,0,0,5],[0,1,0,0,-5],[1,0,0,0,5],[1,1,0,0,-5]];perimeter=orthogonalPerimeter;outlineConnect=0;targetShapes=umlLifeline;portConstraint=eastwest;newEdgeStyle={&quot;curved&quot;:0,&quot;rounded&quot;:0};" parent="31" vertex="1">
                    <mxGeometry x="45" y="250" width="10" height="50" as="geometry"/>
                </mxCell>
                <mxCell id="44" value="data response" style="html=1;verticalAlign=bottom;endArrow=open;dashed=1;endSize=8;" parent="31" edge="1">
                    <mxGeometry x="0.0332" relative="1" as="geometry">
                        <mxPoint x="215" y="289.5" as="sourcePoint"/>
                        <mxPoint x="49.5" y="289.5" as="targetPoint"/>
                        <mxPoint as="offset"/>
                    </mxGeometry>
                </mxCell>
                <mxCell id="49" value="" style="html=1;points=[];perimeter=orthogonalPerimeter;" vertex="1" parent="31">
                    <mxGeometry x="45" y="400" width="10" height="50" as="geometry"/>
                </mxCell>
                <mxCell id="51" value="" style="html=1;points=[];perimeter=orthogonalPerimeter;" vertex="1" parent="31">
                    <mxGeometry x="45" y="490" width="10" height="40" as="geometry"/>
                </mxCell>
                <mxCell id="33" value="data request" style="html=1;verticalAlign=bottom;endArrow=block;labelBackgroundColor=none;fontFamily=Verdana;fontSize=12;edgeStyle=elbowEdgeStyle;elbow=vertical;" parent="1" target="31" edge="1">
                    <mxGeometry x="-0.0043" relative="1" as="geometry">
                        <mxPoint x="590" y="330" as="sourcePoint"/>
                        <mxPoint x="739.91" y="321.76" as="targetPoint"/>
                        <mxPoint as="offset"/>
                        <Array as="points">
                            <mxPoint x="660" y="330"/>
                        </Array>
                    </mxGeometry>
                </mxCell>
                <mxCell id="38" value="sending &quot;move product&quot; command" style="html=1;verticalAlign=bottom;endArrow=block;labelBackgroundColor=none;fontFamily=Verdana;fontSize=12;exitX=1.046;exitY=0.003;exitDx=0;exitDy=0;exitPerimeter=0;" parent="1" target="31" edge="1" source="53">
                    <mxGeometry relative="1" as="geometry">
                        <mxPoint x="130" y="570" as="sourcePoint"/>
                        <mxPoint x="599.5" y="570" as="targetPoint"/>
                        <Array as="points">
                            <mxPoint x="560" y="570"/>
                        </Array>
                    </mxGeometry>
                </mxCell>
                <mxCell id="40" value=":data repository" style="shape=umlLifeline;perimeter=lifelinePerimeter;whiteSpace=wrap;html=1;container=1;collapsible=0;recursiveResize=0;outlineConnect=0;rounded=1;shadow=0;comic=0;labelBackgroundColor=none;strokeWidth=1;fontFamily=Verdana;fontSize=12;align=center;" parent="1" vertex="1">
                    <mxGeometry x="900" y="80" width="100" height="580" as="geometry"/>
                </mxCell>
                <mxCell id="41" value="" style="html=1;points=[[0,0,0,0,5],[0,1,0,0,-5],[1,0,0,0,5],[1,1,0,0,-5]];perimeter=orthogonalPerimeter;outlineConnect=0;targetShapes=umlLifeline;portConstraint=eastwest;newEdgeStyle={&quot;curved&quot;:0,&quot;rounded&quot;:0};" parent="40" vertex="1">
                    <mxGeometry x="45" y="260" width="10" height="30" as="geometry"/>
                </mxCell>
                <mxCell id="47" value="sync action response" style="html=1;verticalAlign=bottom;endArrow=open;dashed=1;endSize=8;" parent="40" edge="1">
                    <mxGeometry x="0.0332" relative="1" as="geometry">
                        <mxPoint x="45" y="450" as="sourcePoint"/>
                        <mxPoint x="-120.5" y="450" as="targetPoint"/>
                        <mxPoint as="offset"/>
                    </mxGeometry>
                </mxCell>
                <mxCell id="50" value="" style="html=1;points=[];perimeter=orthogonalPerimeter;" vertex="1" parent="40">
                    <mxGeometry x="45" y="400" width="10" height="50" as="geometry"/>
                </mxCell>
                <mxCell id="45" value="return state or history" style="html=1;verticalAlign=bottom;endArrow=open;dashed=1;endSize=8;" parent="1" target="28" edge="1">
                    <mxGeometry x="0.0323" relative="1" as="geometry">
                        <mxPoint x="775.5" y="380" as="sourcePoint"/>
                        <mxPoint x="610" y="380" as="targetPoint"/>
                        <mxPoint as="offset"/>
                    </mxGeometry>
                </mxCell>
                <mxCell id="46" value="transfer data updates&lt;br&gt;for sync action" style="html=1;verticalAlign=bottom;endArrow=block;labelBackgroundColor=none;fontFamily=Verdana;fontSize=12;edgeStyle=elbowEdgeStyle;elbow=vertical;" parent="1" edge="1">
                    <mxGeometry x="-0.0043" relative="1" as="geometry">
                        <mxPoint x="780" y="480" as="sourcePoint"/>
                        <mxPoint x="950" y="480" as="targetPoint"/>
                        <mxPoint as="offset"/>
                    </mxGeometry>
                </mxCell>
                <mxCell id="27" value="getting access message" style="html=1;verticalAlign=bottom;endArrow=open;dashed=1;endSize=8;labelBackgroundColor=none;fontFamily=Verdana;fontSize=12;edgeStyle=elbowEdgeStyle;elbow=vertical;exitX=-0.051;exitY=1.06;exitDx=0;exitDy=0;exitPerimeter=0;entryX=0.963;entryY=0.813;entryDx=0;entryDy=0;entryPerimeter=0;" parent="1" target="16" edge="1" source="20">
                    <mxGeometry x="0.5385" y="-20" relative="1" as="geometry">
                        <mxPoint x="280" y="300" as="targetPoint"/>
                        <Array as="points">
                            <mxPoint x="390" y="270"/>
                            <mxPoint x="345" y="280"/>
                            <mxPoint x="375" y="280"/>
                        </Array>
                        <mxPoint x="400" y="290" as="sourcePoint"/>
                        <mxPoint as="offset"/>
                    </mxGeometry>
                </mxCell>
                <mxCell id="24" value="current state, history or generate report request" style="html=1;verticalAlign=bottom;endArrow=block;labelBackgroundColor=none;fontFamily=Verdana;fontSize=12;exitX=1.116;exitY=-0.004;exitDx=0;exitDy=0;exitPerimeter=0;" parent="1" target="29" edge="1" source="52">
                    <mxGeometry relative="1" as="geometry">
                        <mxPoint x="130" y="320" as="sourcePoint"/>
                        <mxPoint x="570" y="340" as="targetPoint"/>
                        <Array as="points">
                            <mxPoint x="560" y="320"/>
                        </Array>
                    </mxGeometry>
                </mxCell>
                <mxCell id="43" value="data request" style="html=1;verticalAlign=bottom;endArrow=block;labelBackgroundColor=none;fontFamily=Verdana;fontSize=12;edgeStyle=elbowEdgeStyle;elbow=vertical;exitX=0.967;exitY=0.021;exitDx=0;exitDy=0;exitPerimeter=0;" parent="1" edge="1">
                    <mxGeometry x="-0.0043" relative="1" as="geometry">
                        <mxPoint x="785" y="340" as="sourcePoint"/>
                        <mxPoint x="955" y="340" as="targetPoint"/>
                        <mxPoint as="offset"/>
                    </mxGeometry>
                </mxCell>
            </root>
        </mxGraphModel>
    </diagram>
</mxfile>